HIERARCHY
ROOT Hips
{
  OFFSET 2.26061 22.2878 23.7974
  CHANNELS 6 Xposition Yposition Zposition Zrotation Xrotation Yrotation
  JOINT LeftUpLeg
  {
    OFFSET 8.64259 1.95398 -2.38835
    CHANNELS 3 Zrotation Xrotation Yrotation
    JOINT LeftLeg
    {
      OFFSET 43.7702 0 0
      CHANNELS 3 Zrotation Xrotation Yrotation
      JOINT LeftFoot
      {
        OFFSET 40.6238 0 0
        CHANNELS 3 Zrotation Xrotation Yrotation
        JOINT LeftToeBase
        {
          OFFSET 12.7242 0 0
          CHANNELS 3 Zrotation Xrotation Yrotation
          End Site
          {
            OFFSET 0 0 0
          }
        }
      }
    }
  }
  JOINT RightUpLeg
  {
    OFFSET -8.2249 1.95398 -2.59336
    CHANNELS 3 Zrotation Xrotation Yrotation
    JOINT RightLeg
    {
      OFFSET 43.5653 0 0
      CHANNELS 3 Zrotation Xrotation Yrotation
      JOINT RightFoot
      {
        OFFSET 40.6238 0 0
        CHANNELS 3 Zrotation Xrotation Yrotation
        JOINT RightToeBase
        {
          OFFSET 12.7242 0 0
          CHANNELS 3 Zrotation Xrotation Yrotation
          End Site
          {
            OFFSET 0 0 0
          }
        }
      }
    }
  }
  JOINT Spine
  {
    OFFSET 0.165834 0.87714 6.61349
    CHANNELS 3 Zrotation Xrotation Yrotation
    JOINT Spine1
    {
      OFFSET 7.38963 1.71661e-005 0
      CHANNELS 3 Zrotation Xrotation Yrotation
      JOINT Spine2
      {
        OFFSET 11.9445 1.14441e-005 0
        CHANNELS 3 Zrotation Xrotation Yrotation
        JOINT Spine3
        {
          OFFSET 14.7254 4.19617e-005 0
          CHANNELS 3 Zrotation Xrotation Yrotation
          JOINT Spine4
          {
            OFFSET 10.9679 0 0
            CHANNELS 3 Zrotation Xrotation Yrotation
            JOINT RightShoulder
            {
              OFFSET 2.46616 -1.6653 3.69651
              CHANNELS 3 Zrotation Xrotation Yrotation
              JOINT RightArm
              {
                OFFSET 13.0012 0 0
                CHANNELS 3 Zrotation Xrotation Yrotation
                JOINT RightForeArm
                {
                  OFFSET 28.7848 1.52588e-005 0
                  CHANNELS 3 Zrotation Xrotation Yrotation
                  JOINT RightHand
                  {
                    OFFSET 26.5688 1.52588e-005 0
                    CHANNELS 3 Zrotation Xrotation Yrotation
                    End Site
                    {
                      OFFSET 0 0 0
                    }
                  }
                }
              }
            }
            JOINT LeftShoulder
            {
              OFFSET 2.38034 -1.29275 -3.7523
              CHANNELS 3 Zrotation Xrotation Yrotation
              JOINT LeftArm
              {
                OFFSET 16.3182 6.10351e-005 0
                CHANNELS 3 Zrotation Xrotation Yrotation
                JOINT LeftForeArm
                {
                  OFFSET 27.0901 0 0
                  CHANNELS 3 Zrotation Xrotation Yrotation
                  JOINT LeftHand
                  {
                    OFFSET 24.5451 1.52588e-005 0
                    CHANNELS 3 Zrotation Xrotation Yrotation
                    End Site
                    {
                      OFFSET 0 0 0
                    }
                  }
                }
              }
            }
            JOINT Neck
            {
              OFFSET 5.0226 -0.0266342 0
              CHANNELS 3 Zrotation Xrotation Yrotation
              JOINT Head
              {
                OFFSET 6.69363 2.86102e-005 0
                CHANNELS 3 Zrotation Xrotation Yrotation
                End Site
                {
                  OFFSET 0 0 0
                }
              }
            }
          }
        }
      }
    }
  }
}
MOTION
Frames:	12
Frame Time:	0.0416667
-54.5931 88.705 -158.677 -107.05 -84.4422 -114.748 -174.021 14.3857 107.653 -25.5831 15.3464 6.69122 43.9405 -8.41625 -4.03425 27.7164 -2.22027 10.9316 -177.481 25.0826 77.9907 -56.253 -6.2412 -11.9376 77.5024 -8.54025 -3.81637 47.5391 0.815618 -1.23143 -0.21211 7.5601 -89.7963 11.7542 -0.326144 0.440392 0.0831835 -0.306448 0.454332 -22.4519 -0.44343 0.322023 -2.43929 -0.443428 0.322021 93.3795 -51.8917 -95.3101 18.7608 -6.30911 -0.543776 -9.39316 -23.3574 -48.0167 -16.7383 -1.47906 4.64352 -104.753 -54.5462 59.09 -8.16136 2.29742 10.9889 5.66651 6.45881 -33.1877 10.2565 0.765864 3.35758 1.45737 1.97394 7.92967 7.24585 1.30766 3.62581 
-56.7744 89.1979 -158.882 -100.36 -84.2236 -108.745 -173.922 14.3129 106.345 -24.9805 15.9362 6.4298 48.026 -5.92508 -2.49901 28.7891 -1.08255 10.0246 -176.973 25.2077 78.9212 -55.6107 -5.78289 -11.9151 78.003 -8.83371 -3.9101 46.2484 0.785384 -0.997037 -0.212809 7.53809 -89.7697 11.7982 -0.314919 0.492527 0.127174 -0.292941 0.505897 -22.4078 -0.448383 0.375116 -2.39516 -0.44838 0.375118 92.938 -51.9091 -95.9732 17.9799 -6.83971 0.0336809 -8.89059 -23.026 -48.2327 -16.4594 -1.31428 3.67562 -104.798 -55.0359 59.2245 -7.61324 2.44862 10.9159 5.92371 6.54166 -34.53 10.7389 0.879267 4.0565 1.42334 2.04455 8.50831 7.61996 1.26169 3.06949 
-58.6616 89.9568 -159.122 -92.1884 -83.986 -101.171 -173.604 14.5267 104.557 -23.8245 14.1434 5.60166 49.8138 -4.70401 -1.95044 31.0498 1.16062 8.60805 -176.838 25.2223 79.666 -54.0942 -6.09421 -11.9012 77.8487 -8.73772 -3.88056 45.2807 0.805988 -0.237431 -0.186289 7.51681 -89.7589 11.8406 -0.256969 0.508184 0.169621 -0.234361 0.518996 -22.3652 -0.397825 0.407465 -2.35253 -0.397827 0.407458 92.7465 -51.6268 -96.3108 17.419 -6.90561 0.127345 -8.84508 -23.0374 -48.3775 -16.1659 -1.32613 3.86169 -105.236 -55.2013 58.6986 -7.4417 1.93879 11.0342 6.83783 6.94835 -36.1232 10.9008 0.871784 3.88629 1.75315 2.13842 8.63619 7.9448 1.34844 3.32967 
-60.2941 90.7676 -159.263 -81.47 -83.952 -90.7962 -173.165 15.4805 102.548 -23.6985 11.9537 4.51085 52.1228 -3.32737 -2.40994 33.3647 3.22281 10.1776 -177.034 25.2916 80.3927 -52.1215 -6.66438 -11.7167 77.7371 -8.65066 -3.8538 43.814 0.801258 0.74956 -0.175714 7.44804 -89.774 11.9781 -0.242731 0.477224 0.307068 -0.221482 0.487432 -22.2278 -0.374938 0.382202 -2.21513 -0.374929 0.382211 92.6787 -52.1659 -96.3188 15.8185 -6.64741 0.0707522 -8.93597 -23.887 -48.4315 -15.5674 -1.45966 5.009 -105.503 -55.2383 58.3536 -7.42678 1.7078 10.9967 7.05718 6.60435 -37.4084 10.9891 0.873837 3.84876 2.49 2.30811 8.69303 7.38942 1.45766 3.54705 
-61.6682 91.5513 -159.392 -76.7677 -83.8667 -86.1896 -172.454 15.6773 100.562 -23.303 10.4601 3.18802 54.2716 -1.79018 -0.405501 34.6398 4.42617 9.7735 -177.262 24.6602 81.2712 -49.9677 -7.14643 -11.6896 77.1152 -8.29404 -3.74452 43.0818 0.800362 1.40651 -0.162368 7.45154 -89.7906 11.9709 -0.224063 0.441791 0.299945 -0.204393 0.451214 -22.2349 -0.346479 0.354027 -2.22231 -0.346471 0.354026 92.9014 -52.3633 -95.9504 14.9971 -6.51627 -0.310716 -8.72926 -24.382 -47.6879 -14.9488 -1.37472 4.68192 -105.235 -55.1005 58.66 -7.54453 1.89015 10.4954 6.62382 5.8739 -38.1805 11.3341 0.837229 3.3379 2.89628 2.38426 8.3364 7.57574 1.58254 3.80368 
-62.8654 92.3656 -159.574 -73.6526 -84.0728 -83.0103 -171.821 15.9296 98.6059 -23.5618 6.25278 2.00789 56.8228 -0.195764 -3.04803 35.2187 4.95395 10.7502 -177.682 23.6476 82.1112 -47.3523 -7.51448 -11.5065 76.4573 -7.96868 -3.64784 41.9229 0.760521 2.04212 -0.185297 7.46296 -89.8293 11.9484 -0.287929 0.37161 0.277457 -0.271284 0.383926 -22.2577 -0.386302 0.267896 -2.24508 -0.386305 0.267892 92.746 -51.8565 -96.2718 15.0278 -6.23716 0.0400848 -8.22268 -24.4311 -47.0645 -14.8324 -1.40014 4.91901 -105.261 -55.0869 58.6191 -7.48508 2.01179 10.3695 7.08794 6.04713 -39.6628 11.2628 0.826853 3.2919 2.60305 2.29217 8.57406 8.11959 1.45693 3.41135 
-63.8854 93.1393 -159.701 -72.8224 -84.3841 -82.1356 -171.528 15.9114 96.3232 -24.2221 4.56829 1.00568 58.2737 0.769512 -2.05541 35.9634 5.65894 10.3098 -178.092 22.3664 82.8161 -44.821 -7.83498 -11.3617 75.6349 -7.60336 -3.53984 40.635 0.6865 2.39827 -0.186786 7.48763 -89.8829 11.8989 -0.316213 0.26757 0.22791 -0.30412 0.28122 -22.3074 -0.382012 0.160165 -2.2948 -0.382005 0.160164 92.7312 -51.5507 -96.3477 14.7876 -5.66636 0.238063 -7.99932 -24.3377 -46.2289 -14.0383 -1.39476 5.26285 -106.016 -55.4589 57.7527 -6.97529 1.97594 10.2435 7.51789 6.16329 -40.9159 11.5679 0.838425 3.21624 2.7044 2.09315 9.41927 7.87108 1.05823 2.72005 
-64.7625 93.8205 -159.797 -70.8104 -85.1166 -79.8231 -171.352 16.0903 94.2838 -25.2548 3.76526 0.132017 60.0042 1.95229 -1.70664 36.3408 6.01857 11.0748 -178.768 21.0651 83.6263 -42.178 -7.61155 -10.9585 74.7533 -7.1358 -3.38048 39.5449 0.622924 2.86648 -0.222994 7.49028 -89.9064 11.8938 -0.399309 0.229602 0.222859 -0.388811 0.24695 -22.3127 -0.449847 0.0989821 -2.30009 -0.449853 0.098975 92.865 -51.9082 -96.0833 14.4665 -5.23253 0.478182 -7.47489 -23.9976 -45.58 -13.6921 -1.40844 5.55945 -105.968 -55.1128 57.6756 -6.87996 1.84715 10.1626 8.29972 6.63571 -42.1864 11.8491 0.887533 3.45784 2.24241 1.9037 8.76721 8.09641 1.02656 2.95437 
-65.5338 94.4897 -159.839 -70.2418 -85.6061 -78.819 -171.183 16.0682 92.4084 -26.4024 3.41541 -0.630191 62.1017 3.32448 -1.01856 36.6949 6.34907 10.619 -179.078 19.6758 84.5272 -39.6237 -7.91251 -10.69 73.3073 -6.56688 -3.19618 38.9996 0.552973 1.69133 -0.250041 7.48922 -89.9516 11.8958 -0.474354 0.147468 0.224939 -0.467397 0.168197 -22.3109 -0.496748 -0.00191975 -2.29826 -0.496743 -0.00192212 92.6947 -51.7193 -96.3732 14.7723 -4.6125 1.13418 -7.82133 -24.1418 -45.2045 -12.8819 -1.33096 5.37753 -106.055 -55.0574 57.5356 -6.74249 1.84172 10.1138 8.36689 6.41206 -43.0635 12.4456 0.880302 3.08543 1.52522 1.6842 8.36819 8.55469 0.915896 2.84914 
-66.2666 94.9837 -159.94 -72.3953 -86.1647 -80.6729 -171.13 15.7112 90.6012 -27.2379 4.48477 -1.33045 63.0561 4.15697 0.136719 38.208 7.78737 10.9793 -179.379 18.1644 85.283 -37.2196 -6.8454 -10.4356 73.3478 -6.50668 -3.16558 36.8761 0.428932 3.28958 -0.277529 7.50584 -89.9698 11.8626 -0.537654 0.117624 0.191808 -0.53195 0.14118 -22.3442 -0.54815 -0.0493998 -2.33159 -0.54815 -0.0493943 92.9199 -51.8458 -96.0119 14.7191 -4.36311 1.37437 -7.67364 -23.901 -44.585 -12.1905 -1.28134 5.36026 -105.752 -54.8969 57.8791 -6.89802 1.87826 9.83052 7.99711 5.77397 -43.5918 11.9433 0.796289 2.68204 1.2392 1.64147 7.76874 8.55752 0.989974 3.03566 
-66.9038 95.431 -159.968 -71.1416 -86.9865 -78.8284 -170.869 15.3748 89.3058 -27.609 6.72409 -2.0803 63.8851 5.04941 1.87844 38.1656 7.73609 10.6753 179.898 16.8859 86.0302 -35.0358 -6.92404 -9.85326 72.8876 -6.17132 -3.02972 35.5442 0.312519 3.284 -0.322392 7.49484 -90.0082 11.8815 -0.644898 0.0527314 0.210751 -0.641948 0.081063 -22.3257 -0.630931 -0.143529 -2.313 -0.630931 -0.14353 92.7408 -51.5872 -96.3271 15.3811 -3.88152 2.03479 -6.89618 -23.0728 -43.6688 -12.2751 -1.31911 5.69067 -105.766 -54.518 57.7037 -7.03955 1.90574 9.78509 7.6656 5.14786 -44.2595 11.5431 0.76619 2.64102 1.17135 1.40151 6.99235 8.12913 0.861611 3.20844 
-67.4579 95.8106 -159.933 -71.8719 -87.6641 -78.9294 -170.761 14.7475 88.3603 -27.3531 9.30875 -2.62602 63.9248 5.40866 3.81216 38.2194 7.78255 10.5681 179.196 15.557 86.6994 -33.0054 -7.63088 -9.29671 72.0454 -5.69513 -2.83523 35.2446 0.300653 2.58019 -0.34374 7.50045 -90.0217 11.8744 -0.69371 0.0310809 0.203632 -0.691663 0.0615692 -22.3329 -0.670973 -0.178852 -2.32029 -0.670977 -0.178868 93.3297 -52.751 -95.2452 14.6719 -3.58431 1.87224 -6.20854 -22.189 -42.7412 -11.0399 -1.33889 6.79359 -105.62 -54.0578 57.7132 -6.88079 2.40557 9.36526 7.20055 4.76739 -44.4476 11.3403 0.731838 2.45975 0.807486 1.40509 5.62324 8.25911 1.11877 3.80209 
